<?xml version="1.0" encoding="UTF-8"?>
<svg xmlns="http://www.w3.org/2000/svg" xmlns:xlink="http://www.w3.org/1999/xlink" version="1.1" id="Capa_1" x="0px" y="0px" viewBox="0 0 512 512" style="enable-background:new 0 0 512 512;" xml:space="preserve" width="512" height="512">
<g>
	<g>
		<path style="fill:none;stroke:#000000;stroke-width:20;stroke-linecap:round;stroke-linejoin:round;stroke-miterlimit:10;" d="&#10;&#9;&#9;&#9;M315.717,299.591v22.336c0,4.903-1.236,9.718-3.6,14.008l-18.484,33.487c-3.951-8.098-10.55-14.817-18.976-18.866&#10;&#9;&#9;&#9;c-5.909-2.834-12.311-4.257-18.713-4.257c-6.336,0-12.684,1.39-18.549,4.181l-0.153,0.077c-8.361,4.016-14.927,10.67-18.878,18.68&#10;&#9;&#9;&#9;l-18.385-33.301c-2.364-4.29-3.6-9.105-3.6-14.008v-22.336c0-16.021,12.979-29,28.989-29h61.36&#10;&#9;&#9;&#9;C302.738,270.591,315.717,283.57,315.717,299.591z"/>
		<path style="fill:none;stroke:#000000;stroke-width:20;stroke-linecap:round;stroke-linejoin:round;stroke-miterlimit:10;" d="&#10;&#9;&#9;&#9;M297.738,413.801v-26.567c0-15.647-8.973-29.907-23.079-36.678h0c-11.771-5.65-25.465-5.678-37.259-0.076l-0.16,0.076&#10;&#9;&#9;&#9;c-14.106,6.771-23.079,21.031-23.079,36.678v26.567c0,5.259-1.02,10.468-3.002,15.339l-6.854,16.837&#10;&#9;&#9;&#9;c-4.975,12.222-3.713,26.097,3.384,37.222l0,0C215.162,494.911,228.095,502,241.988,502h13.864h0.196h13.864&#10;&#9;&#9;&#9;c13.893,0,26.826-7.089,34.298-18.802l0,0c7.097-11.124,8.359-25,3.384-37.221l-6.854-16.837&#10;&#9;&#9;&#9;C298.757,424.269,297.738,419.06,297.738,413.801z"/>
		
			<line style="fill:none;stroke:#000000;stroke-width:20;stroke-linecap:round;stroke-linejoin:round;stroke-miterlimit:10;" x1="255.949" y1="324.007" x2="255.949" y2="370.085"/>
	</g>
	
		<line style="fill:none;stroke:#000000;stroke-width:20;stroke-linecap:round;stroke-linejoin:round;stroke-miterlimit:10;" x1="244.097" y1="461.298" x2="267.998" y2="461.298"/>
	<path style="fill:none;stroke:#000000;stroke-width:20;stroke-linecap:round;stroke-linejoin:round;stroke-miterlimit:10;" d="&#10;&#9;&#9;M222.435,496.99c5.9,3.24,12.6,5.01,19.55,5.01h-105.59V248.15c0,0,5.44-109.46-80.4-166.42L119.235,10&#10;&#9;&#9;c0,0,106.13,68.04,106.13,219.79l-0.03,40.8c-16,0.02-28.96,12.99-28.96,29v22.34c0,4.9,1.24,9.71,3.6,14l18.39,33.3&#10;&#9;&#9;c-2.72,5.5-4.2,11.63-4.2,18v26.57c0,5.26-1.02,10.47-3.01,15.34l-6.85,16.84c-4.97,12.22-3.71,26.09,3.38,37.22&#10;&#9;&#9;C211.425,489.06,216.525,493.76,222.435,496.99z"/>
	<path style="fill:none;stroke:#000000;stroke-width:20;stroke-linecap:round;stroke-linejoin:round;stroke-miterlimit:10;" d="&#10;&#9;&#9;M375.605,341.678V248.15c0,0-5.45-109.46,80.4-166.42L392.765,10c0,0-106.14,65.33-106.14,219.79l0.03,40.8h0.07&#10;&#9;&#9;c16.01,0,28.99,12.98,28.99,29v22.34c0,4.9-1.23,9.71-3.6,14l-18.48,33.49c2.65,5.45,4.1,11.52,4.1,17.81v26.57&#10;&#9;&#9;c0,5.26,1.02,10.47,3.01,15.34l6.85,16.84c2.01,4.94,3,10.14,3,15.33c0,7.65-2.16,15.26-6.39,21.89&#10;&#9;&#9;c-7.47,11.71-20.4,18.8-34.29,18.8h105.69v-72.358"/>
	
		<path style="fill:none;stroke:#000000;stroke-width:20;stroke-linecap:round;stroke-linejoin:round;stroke-miterlimit:10;stroke-dasharray:30,41,30,41;" d="&#10;&#9;&#9;M394.506,68.231c0,0-64.438,61.61-64.438,174.959"/>
	
		<path style="fill:none;stroke:#000000;stroke-width:20;stroke-linecap:round;stroke-linejoin:round;stroke-miterlimit:10;stroke-dasharray:30,41,30,41;" d="&#10;&#9;&#9;M118.309,68.231c0,0,64.438,61.61,64.438,174.959"/>
	
		<line style="fill:none;stroke:#000000;stroke-width:20;stroke-linecap:round;stroke-linejoin:round;stroke-miterlimit:10;" x1="374.917" y1="385.661" x2="374.917" y2="385.661"/>
</g>















</svg>
