<svg height="512" viewBox="0 0 128 128" width="512" xmlns="http://www.w3.org/2000/svg"><g><path d="m117.517 111.542v-98.173a1.75 1.75 0 0 0 -1.75-1.75h-91.946c-7.389 0-12.962 3.286-12.962 7.644v92.279c0 4.357 5.573 7.643 12.962 7.643 6.361 0 11.365-2.437 12.638-5.893h79.308a1.75 1.75 0 0 0 1.75-1.75zm-93.7-96.423c5.416 0 9.463 2.188 9.463 4.144s-4.047 4.142-9.463 4.142-9.462-2.187-9.462-4.142 4.051-4.144 9.466-4.144zm0 100.566c-5.415 0-9.462-2.188-9.462-4.143v-86.961a18.216 18.216 0 0 0 9.462 2.324 18.217 18.217 0 0 0 9.463-2.324v86.961c.004 1.958-4.043 4.143-9.459 4.143zm90.2-5.893h-77.233v-90.529a5.694 5.694 0 0 0 -1.961-4.144h79.194z"/><ellipse cx="23.822" cy="19.263" rx="2.706" ry="1.422"/><path d="m49.4 36.162a6.967 6.967 0 1 0 -6.969-6.962 6.975 6.975 0 0 0 6.969 6.962zm0-10.434a3.467 3.467 0 1 1 -3.469 3.472 3.471 3.471 0 0 1 3.469-3.472z"/><path d="m75.882 36.162a6.967 6.967 0 1 0 -6.967-6.962 6.975 6.975 0 0 0 6.967 6.962zm0-10.434a3.467 3.467 0 1 1 -3.467 3.472 3.471 3.471 0 0 1 3.467-3.472z"/><path d="m102.366 36.162a6.967 6.967 0 1 0 -6.966-6.962 6.974 6.974 0 0 0 6.966 6.962zm0-10.434a3.467 3.467 0 1 1 -3.466 3.472 3.471 3.471 0 0 1 3.466-3.472z"/><path d="m62.64 58.336a6.968 6.968 0 1 0 -6.967-6.967 6.975 6.975 0 0 0 6.967 6.967zm0-10.435a3.468 3.468 0 1 1 -3.467 3.468 3.471 3.471 0 0 1 3.467-3.469z"/><path d="m89.124 58.336a6.968 6.968 0 1 0 -6.968-6.967 6.975 6.975 0 0 0 6.968 6.967zm0-10.435a3.468 3.468 0 1 1 -3.468 3.468 3.472 3.472 0 0 1 3.468-3.469z"/><path d="m49.4 80.51a6.968 6.968 0 1 0 -6.967-6.967 6.975 6.975 0 0 0 6.967 6.967zm0-10.435a3.468 3.468 0 1 1 -3.467 3.468 3.472 3.472 0 0 1 3.467-3.468z"/><path d="m75.882 66.575a6.968 6.968 0 1 0 6.968 6.968 6.975 6.975 0 0 0 -6.968-6.968zm0 10.435a3.468 3.468 0 1 1 3.468-3.467 3.472 3.472 0 0 1 -3.468 3.467z"/><path d="m102.366 66.575a6.968 6.968 0 1 0 6.967 6.968 6.976 6.976 0 0 0 -6.967-6.968zm0 10.435a3.468 3.468 0 1 1 3.467-3.467 3.472 3.472 0 0 1 -3.467 3.467z"/><path d="m62.64 88.749a6.968 6.968 0 1 0 6.967 6.968 6.975 6.975 0 0 0 -6.967-6.968zm0 10.435a3.468 3.468 0 1 1 3.467-3.467 3.471 3.471 0 0 1 -3.467 3.467z"/><path d="m89.124 88.749a6.968 6.968 0 1 0 6.968 6.968 6.976 6.976 0 0 0 -6.968-6.968zm0 10.435a3.468 3.468 0 1 1 3.468-3.467 3.472 3.472 0 0 1 -3.468 3.467z"/></g></svg>