<svg height="512" viewBox="0 0 128 128" width="512" xmlns="http://www.w3.org/2000/svg"><g><path d="m119.072 111.384a14.836 14.836 0 0 1 -2.794-5.106c-.484-1.749.126-2.593 1.439-4.189 1.233-1.5 2.767-3.36 2.767-6.46a9.237 9.237 0 0 0 -2.493-6.366 5.927 5.927 0 0 1 0-8.362 9.377 9.377 0 0 0 0-12.734 5.922 5.922 0 0 1 0-8.358 9.371 9.371 0 0 0 0-12.729 5.922 5.922 0 0 1 0-8.358 9.374 9.374 0 0 0 0-12.732 5.8 5.8 0 0 1 -1.726-4.179c0-1.726 1.18-3.306 2.321-4.834 1.567-2.1 3.937-5.275.766-8.443s-6.345-.8-8.444.768c-1.529 1.141-3.11 2.322-4.837 2.322a5.808 5.808 0 0 1 -4.184-1.724 9.382 9.382 0 0 0 -12.736 0 5.923 5.923 0 0 1 -8.361 0 9.38 9.38 0 0 0 -12.734 0 5.921 5.921 0 0 1 -8.358 0 9.372 9.372 0 0 0 -12.73 0 5.921 5.921 0 0 1 -8.358 0 9.376 9.376 0 0 0 -12.732 0 5.8 5.8 0 0 1 -4.178 1.724c-1.726 0-3.307-1.18-4.835-2.321-2.1-1.567-5.272-3.938-8.442-.767s-.8 6.345.768 8.445c1.141 1.529 2.322 3.11 2.322 4.837a5.807 5.807 0 0 1 -1.727 4.182 9.38 9.38 0 0 0 0 12.736 5.925 5.925 0 0 1 0 8.362 9.377 9.377 0 0 0 0 12.734 5.918 5.918 0 0 1 0 8.357 9.373 9.373 0 0 0 0 12.731 5.918 5.918 0 0 1 0 8.357 9.374 9.374 0 0 0 0 12.732 5.8 5.8 0 0 1 1.727 4.179c0 1.726-1.18 3.306-2.321 4.834-1.568 2.1-3.937 5.275-.767 8.443a4.7 4.7 0 0 0 3.375 1.565c1.94 0 3.722-1.33 5.065-2.332 1.529-1.141 3.11-2.322 4.837-2.322a5.808 5.808 0 0 1 4.188 1.724 9.381 9.381 0 0 0 12.736 0 5.926 5.926 0 0 1 8.362 0 9.38 9.38 0 0 0 12.734 0 5.92 5.92 0 0 1 8.357 0 9.372 9.372 0 0 0 12.73 0 5.922 5.922 0 0 1 8.358 0 9.374 9.374 0 0 0 12.732 0 5.8 5.8 0 0 1 4.179-1.726c1.725 0 3.306 1.18 4.834 2.321 2.1 1.568 5.275 3.938 8.442.767 3.303-3.303 1.315-5.95-.282-8.078zm-2.193 5.606c-.846.844-1.273.843-3.873-1.1-1.8-1.343-4.041-3.016-6.928-3.016a9.234 9.234 0 0 0 -6.366 2.494 5.925 5.925 0 0 1 -8.359 0 9.371 9.371 0 0 0 -12.73 0 5.923 5.923 0 0 1 -8.357 0 9.372 9.372 0 0 0 -12.731 0 5.926 5.926 0 0 1 -8.361 0 9.377 9.377 0 0 0 -12.734 0 5.929 5.929 0 0 1 -8.364 0 9.244 9.244 0 0 0 -6.37-2.493c-2.889 0-5.129 1.673-6.93 3.017-2.6 1.942-3.031 1.943-3.877 1.1s-.844-1.272 1.1-3.873c1.344-1.8 3.017-4.04 3.017-6.928a9.232 9.232 0 0 0 -2.494-6.365 5.923 5.923 0 0 1 0-8.359 9.372 9.372 0 0 0 0-12.732 5.918 5.918 0 0 1 0-8.355 9.372 9.372 0 0 0 0-12.732 5.926 5.926 0 0 1 0-8.361 9.374 9.374 0 0 0 0-12.734 5.928 5.928 0 0 1 0-8.364 9.245 9.245 0 0 0 2.493-6.369c0-2.889-1.673-5.13-3.017-6.93-1.942-2.6-1.944-3.031-1.1-3.878a1.377 1.377 0 0 1 .971-.538c.556 0 1.333.466 2.9 1.635 1.8 1.344 4.041 3.017 6.929 3.017a9.236 9.236 0 0 0 6.365-2.493 5.923 5.923 0 0 1 8.359 0 9.372 9.372 0 0 0 12.731 0 5.922 5.922 0 0 1 8.356 0 9.372 9.372 0 0 0 12.731 0 5.926 5.926 0 0 1 8.361 0 9.377 9.377 0 0 0 12.735 0 5.931 5.931 0 0 1 8.364 0 9.239 9.239 0 0 0 6.369 2.493c2.889 0 5.13-1.673 6.93-3.017 2.6-1.941 3.029-1.944 3.878-1.1s.844 1.272-1.1 3.873c-1.344 1.8-3.016 4.04-3.016 6.928a9.232 9.232 0 0 0 2.493 6.365 5.923 5.923 0 0 1 0 8.359 9.373 9.373 0 0 0 0 12.731 5.921 5.921 0 0 1 0 8.357 9.373 9.373 0 0 0 0 12.731 5.926 5.926 0 0 1 0 8.361 9.377 9.377 0 0 0 0 12.734 5.8 5.8 0 0 1 1.726 4.18c0 1.844-.913 2.953-1.969 4.236-1.382 1.678-3.1 3.767-2.11 7.347a18.263 18.263 0 0 0 3.368 6.274c1.725 2.293 1.684 2.43.61 3.505z"/><path d="m95.064 55.054a1.75 1.75 0 0 0 -1.75 1.75v4.785a1.75 1.75 0 0 0 3.5 0v-4.789a1.749 1.749 0 0 0 -1.75-1.746z"/><path d="m95.064 68.688a1.751 1.751 0 0 0 -1.75 1.75v4.786a1.75 1.75 0 1 0 3.5 0v-4.786a1.75 1.75 0 0 0 -1.75-1.75z"/><path d="m104.274 64.264h-4.785a1.75 1.75 0 0 0 0 3.5h4.785a1.75 1.75 0 0 0 0-3.5z"/><path d="m90.64 64.264h-4.786a1.75 1.75 0 0 0 0 3.5h4.786a1.75 1.75 0 0 0 0-3.5z"/><path d="m63.993 55.054a1.75 1.75 0 0 0 -1.75 1.75v4.785a1.75 1.75 0 1 0 3.5 0v-4.789a1.75 1.75 0 0 0 -1.75-1.746z"/><path d="m63.993 68.688a1.751 1.751 0 0 0 -1.75 1.75v4.786a1.75 1.75 0 1 0 3.5 0v-4.786a1.751 1.751 0 0 0 -1.75-1.75z"/><path d="m73.2 64.264h-4.783a1.75 1.75 0 0 0 0 3.5h4.783a1.75 1.75 0 0 0 0-3.5z"/><path d="m59.569 64.264h-4.786a1.75 1.75 0 0 0 0 3.5h4.786a1.75 1.75 0 0 0 0-3.5z"/><path d="m32.922 55.054a1.749 1.749 0 0 0 -1.75 1.75v4.785a1.75 1.75 0 0 0 3.5 0v-4.789a1.75 1.75 0 0 0 -1.75-1.746z"/><path d="m32.922 68.688a1.75 1.75 0 0 0 -1.75 1.75v4.786a1.75 1.75 0 0 0 3.5 0v-4.786a1.751 1.751 0 0 0 -1.75-1.75z"/><path d="m42.132 64.264h-4.786a1.75 1.75 0 1 0 0 3.5h4.786a1.75 1.75 0 0 0 0-3.5z"/><path d="m28.5 64.264h-4.788a1.75 1.75 0 0 0 0 3.5h4.788a1.75 1.75 0 0 0 0-3.5z"/><path d="m73.2 95.335h-4.783a1.75 1.75 0 0 0 0 3.5h4.783a1.75 1.75 0 0 0 0-3.5z"/><path d="m59.569 95.335h-4.786a1.75 1.75 0 0 0 0 3.5h4.786a1.75 1.75 0 0 0 0-3.5z"/><path d="m63.993 99.759a1.751 1.751 0 0 0 -1.75 1.75v4.791a1.75 1.75 0 0 0 3.5 0v-4.786a1.751 1.751 0 0 0 -1.75-1.755z"/><path d="m63.993 86.125a1.751 1.751 0 0 0 -1.75 1.75v4.786a1.75 1.75 0 1 0 3.5 0v-4.786a1.751 1.751 0 0 0 -1.75-1.75z"/><path d="m73.2 33.192h-4.783a1.75 1.75 0 0 0 0 3.5h4.783a1.75 1.75 0 0 0 0-3.5z"/><path d="m59.569 33.192h-4.786a1.75 1.75 0 0 0 0 3.5h4.786a1.75 1.75 0 0 0 0-3.5z"/><path d="m63.993 37.616a1.751 1.751 0 0 0 -1.75 1.75v4.786a1.75 1.75 0 1 0 3.5 0v-4.786a1.751 1.751 0 0 0 -1.75-1.75z"/><path d="m63.993 23.982a1.751 1.751 0 0 0 -1.75 1.75v4.786a1.75 1.75 0 0 0 3.5 0v-4.786a1.751 1.751 0 0 0 -1.75-1.75z"/><path d="m42.132 95.335h-4.786a1.75 1.75 0 1 0 0 3.5h4.786a1.75 1.75 0 0 0 0-3.5z"/><path d="m28.5 95.335h-4.788a1.75 1.75 0 0 0 0 3.5h4.788a1.75 1.75 0 0 0 0-3.5z"/><path d="m32.922 99.759a1.75 1.75 0 0 0 -1.75 1.75v4.791a1.75 1.75 0 0 0 3.5 0v-4.786a1.751 1.751 0 0 0 -1.75-1.755z"/><path d="m32.922 86.125a1.75 1.75 0 0 0 -1.75 1.75v4.786a1.75 1.75 0 0 0 3.5 0v-4.786a1.751 1.751 0 0 0 -1.75-1.75z"/><path d="m42.132 33.192h-4.786a1.75 1.75 0 0 0 0 3.5h4.786a1.75 1.75 0 0 0 0-3.5z"/><path d="m28.5 33.192h-4.788a1.75 1.75 0 1 0 0 3.5h4.788a1.75 1.75 0 0 0 0-3.5z"/><path d="m32.922 37.616a1.75 1.75 0 0 0 -1.75 1.75v4.786a1.75 1.75 0 0 0 3.5 0v-4.786a1.751 1.751 0 0 0 -1.75-1.75z"/><path d="m32.922 23.982a1.75 1.75 0 0 0 -1.75 1.75v4.786a1.75 1.75 0 0 0 3.5 0v-4.786a1.751 1.751 0 0 0 -1.75-1.75z"/><path d="m104.272 95.335h-4.785a1.75 1.75 0 0 0 0 3.5h4.785a1.75 1.75 0 0 0 0-3.5z"/><path d="m90.638 95.335h-4.786a1.75 1.75 0 0 0 0 3.5h4.786a1.75 1.75 0 0 0 0-3.5z"/><path d="m95.062 99.759a1.751 1.751 0 0 0 -1.75 1.75v4.791a1.75 1.75 0 0 0 3.5 0v-4.786a1.75 1.75 0 0 0 -1.75-1.755z"/><path d="m95.062 86.125a1.751 1.751 0 0 0 -1.75 1.75v4.786a1.75 1.75 0 0 0 3.5 0v-4.786a1.75 1.75 0 0 0 -1.75-1.75z"/><path d="m99.487 36.692h4.785a1.75 1.75 0 0 0 0-3.5h-4.785a1.75 1.75 0 0 0 0 3.5z"/><path d="m85.852 36.692h4.786a1.75 1.75 0 0 0 0-3.5h-4.786a1.75 1.75 0 0 0 0 3.5z"/><path d="m95.062 45.9a1.749 1.749 0 0 0 1.75-1.75v-4.784a1.75 1.75 0 0 0 -3.5 0v4.786a1.75 1.75 0 0 0 1.75 1.748z"/><path d="m95.062 32.268a1.75 1.75 0 0 0 1.75-1.75v-4.786a1.75 1.75 0 0 0 -3.5 0v4.786a1.751 1.751 0 0 0 1.75 1.75z"/></g></svg>