<?xml version="1.0" encoding="UTF-8" standalone="no"?>
<!-- Created with Inkscape (http://www.inkscape.org/) -->

<svg
   version="1.1"
   id="svg588"
   xml:space="preserve"
   width="682.66669"
   height="682.66669"
   viewBox="0 0 682.66669 682.66669"
   xmlns="http://www.w3.org/2000/svg"
   xmlns:svg="http://www.w3.org/2000/svg"><defs
     id="defs592"><clipPath
       clipPathUnits="userSpaceOnUse"
       id="clipPath602"><path
         d="M 0,512 H 512 V 0 H 0 Z"
         id="path600" /></clipPath></defs><g
     id="g594"
     transform="matrix(1.3333333,0,0,-1.3333333,0,682.66667)"><g
       id="g596"><g
         id="g598"
         clip-path="url(#clipPath602)"><g
           id="g604"
           transform="translate(458.8926,490.0093)"><path
             d="m 0,0 2.154,2.126 c 8.533,8.561 22.535,8.561 31.068,0 8.56,-8.561 8.56,-22.535 0,-31.096 l -2.126,-2.126 c -16.016,-16.015 -16.016,-41.981 0,-57.968 16.015,-16.016 16.015,-41.981 0,-57.968 -16.016,-16.016 -16.016,-41.981 0,-57.997 16.015,-15.987 16.015,-41.952 0,-57.968 -16.016,-16.016 -16.016,-41.953 0,-57.968 16.015,-16.016 16.015,-41.953 0,-57.969 -16.016,-16.015 -16.016,-41.98 0,-57.967 l 2.126,-2.155 c 8.56,-8.532 8.56,-22.535 0,-31.068 -8.533,-8.56 -22.535,-8.56 -31.068,0 L 0,-467.998 c -15.987,16.016 -41.953,16.016 -57.969,0 -16.015,-16.015 -41.952,-16.015 -57.968,0 -16.015,16.016 -41.953,16.016 -57.968,0 -16.016,-16.015 -41.981,-16.015 -57.968,0 -16.016,16.016 -41.981,16.016 -57.997,0 -15.987,-16.015 -41.952,-16.015 -57.968,0 -15.987,16.016 -41.952,16.016 -57.969,0 l -2.126,-2.126 c -8.56,-8.56 -22.535,-8.56 -31.095,0 -8.561,8.533 -8.561,22.536 0,31.068 l 2.126,2.155 c 16.015,15.987 16.015,41.952 0,57.967 -15.988,16.016 -15.988,41.953 0,57.969 16.015,16.015 16.015,41.952 0,57.968 -15.988,16.016 -15.988,41.981 0,57.968 16.015,16.016 16.015,41.981 0,57.997 -15.988,15.987 -15.988,41.952 0,57.968 16.015,15.987 16.015,41.953 0,57.968 l -2.126,2.126 c -8.561,8.561 -8.561,22.535 0,31.096 8.56,8.561 22.535,8.561 31.095,0 L -405.807,0 c 16.017,-16.016 41.982,-16.016 57.969,0 16.016,15.988 41.981,15.988 57.968,0 16.016,-16.016 41.981,-16.016 57.997,0 15.987,15.988 41.952,15.988 57.968,0 16.015,-16.016 41.953,-16.016 57.968,0 16.016,15.988 41.953,15.988 57.968,0 C -41.953,-16.016 -15.987,-16.016 0,0 Z"
             style="fill:none;stroke:#000000;stroke-width:20;stroke-linecap:round;stroke-linejoin:round;stroke-miterlimit:10;stroke-dasharray:none;stroke-opacity:1"
             id="path606" /></g><g
           id="g608"
           transform="translate(185.8604,426.145)"><path
             d="m 0,0 h 39.855 m 60.151,0 h 39.827 m -239.839,-239.838 v 39.827 m 0,60.151 v 39.855 M 0,-340.269 h 39.855 m 60.151,0 h 39.827 m -199.983,0 -39.856,0.198 v 40.054 m 340.27,60.179 v 39.827 m 0,60.151 v 39.855 m 0,60.151 L 240.065,0 h -40.053 m 0,-340.269 40.053,0.198 0.199,40.054 m -340.27,260.163 V 0 h 39.856"
             style="fill:none;stroke:#000000;stroke-width:20;stroke-linecap:round;stroke-linejoin:round;stroke-miterlimit:10;stroke-dasharray:none;stroke-opacity:1"
             id="path610" /></g></g></g></g></svg>
