<svg id="line" height="512" viewBox="0 0 64 64" width="512" xmlns="http://www.w3.org/2000/svg"><path d="m58.51367 40.55762-18.25097-29.20215c-3.57473-6.04476-12.95029-6.05214-16.52538.00021l-18.25099 29.20194a9.74424 9.74424 0 0 0 5.38281 14.47363 71.2135 71.2135 0 0 0 42.26172 0 9.79952 9.79952 0 0 0 5.38281-14.47363zm-1.0039 7.86426a7.69135 7.69135 0 0 1 -4.97071 4.69921 69.232 69.232 0 0 1 -41.07812 0 7.74423 7.74423 0 0 1 -4.2793-11.50293l18.25098-29.20216c2.79326-4.79382 10.34177-4.79968 13.13475.00021l18.251 29.20193a7.69262 7.69262 0 0 1 .6914 6.80374z"/><path d="m32 27.56934a8.203 8.203 0 0 0 -8.19336 8.19336c.41177 10.85333 15.97659 10.85038 16.38673-.00011a8.203 8.203 0 0 0 -8.19337-8.19325zm0 14.38574a6.20015 6.20015 0 0 1 -6.19336-6.19238c.29077-8.197 12.09718-8.19485 12.38673.0001a6.20015 6.20015 0 0 1 -6.19337 6.19228z"/></svg>